# xmcd
#
# Track frame offsets: 
#        150
#        15280
#        30700
#        49202
#        68845
#        83895
#        104872
#        121352
#        143717
#        159345
#        182937
#        200105
#        215437
#
# Disc length: 3249 seconds
#
# Revision: 7
# Processed by: cddbd v1.5.2PL0 Copyright (c) Steve Scherf et al.
# Submitted via: ExactAudioCopy v0.95b4
#
DISCID=bb0caf0d
DTITLE=Zed - Silencer
DYEAR=2000
DGENRE=Rock
TTITLE0=Renegade Fighter
TTITLE1=Driver's Side
TTITLE2=Come On Down
TTITLE3=He's Sad
TTITLE4=Glorafilia
TTITLE5=Unseen
TTITLE6=Oh! Daisy
TTITLE7=Don't You Wish?
TTITLE8=In My Mind
TTITLE9=S.P.S.
TTITLE10=I'm Cold
TTITLE11=Good Man
TTITLE12=Calling Again
EXTD=YEAR: 2000
EXTT0=
EXTT1=
EXTT2=
EXTT3=
EXTT4=
EXTT5=
EXTT6=
EXTT7=
EXTT8=
EXTT9=
EXTT10=
EXTT11=
EXTT12=
PLAYORDER=
